<svg xmlns="http://www.w3.org/2000/svg">
  <symbol id="services" viewBox="0 0 24 24"><rect width="7" height="7" x="3" y="3" rx="1"/><rect width="7" height="7" x="14" y="3" rx="1"/><rect width="7" height="7" x="3" y="14" rx="1"/><rect width="7" height="7" x="14" y="14" rx="1"/></symbol>
  <symbol id="user" viewBox="0 0 24 24"><circle cx="12" cy="8" r="5"/><path d="M20 21a8 8 0 0 0-16 0"/></symbol>
  <symbol id="log-in" viewBox="0 0 24 24"><path d="M15 3h4a2 2 0 0 1 2 2v14a2 2 0 0 1-2 2h-4"/><path d="m10 17 5-5-5-5"/><path d="M15 12H3"/></symbol>
  <symbol id="log-out" viewBox="0 0 24 24"><path d="M9 21H5a2 2 0 0 1-2-2V5a2 2 0 0 1 2-2h4"/><path d="m16 17 5-5-5-5"/><path d="M21 12H9"/></symbol>
  <symbol id="languages" viewBox="0 0 24 24"><path d="m5 8 6 6"/><path d="m4 14 6-6 2-3"/><path d="M2 5h12"/><path d="M7 2h1"/><path d="m22 22-5-10-5 10"/><path d="M14 18h6"/></symbol>
  <symbol id="search" viewBox="0 0 24 24"><circle cx="11" cy="11" r="8"/><path d="m21 21-4.3-4.3"/></symbol>
  <symbol id="file-check" viewBox="0 0 24 24"><path d="M14.5 2H6a2 2 0 0 0-2 2v16a2 2 0 0 0 2 2h12a2 2 0 0 0 2-2V7.5Z"/><polyline points="14 2 14 8 20 8"/><path d="m9 15 2 2 4-4"/></symbol>
  <symbol id="building" viewBox="0 0 24 24"><rect width="16" height="20" x="4" y="2" rx="2"/><path d="M9 22v-4h6v4M8 6h.01M16 6h.01M12 6h.01M12 10h.01M12 14h.01M16 10h.01M16 14h.01M8 10h.01M8 14h.01"/></symbol>
  <symbol id="arrow-right" viewBox="0 0 24 24"><path d="M5 12h14"/><path d="m13 6 6 6-6 6"/></symbol>
</svg>