<?xml version="1.0" encoding="UTF-8" standalone="no"?>
<!DOCTYPE svg PUBLIC "-//W3C//DTD SVG 1.1//EN" "http://www.w3.org/Graphics/SVG/1.1/DTD/svg11.dtd">
<svg width="100%" height="100%" viewBox="0 0 1208 1243" version="1.1" xmlns="http://www.w3.org/2000/svg" xmlns:xlink="http://www.w3.org/1999/xlink" xml:space="preserve" xmlns:serif="http://www.serif.com/" style="fill-rule:evenodd;clip-rule:evenodd;stroke-linejoin:round;stroke-miterlimit:2;">
    <g transform="matrix(2.64757,0,0,2.58182,-23246.8,-9312.13)">
        <path d="M9146.84,3956.72C9158.88,3930.64 9158.88,3909.07 9158.88,3909.07C9180.95,3909.57 9189.98,3888 9189.98,3888C9189.98,3872.95 9175.43,3851.38 9175.43,3851.38C9157.37,3852.39 9146.84,3867.44 9146.84,3867.44C9114.74,3845.87 9060.56,3853.89 9055.05,3854.9L9025.45,3857.4C9019.93,3857.91 9014.92,3857.91 9009.9,3858.41C9006.89,3848.38 9002.38,3829.31 9007.89,3819.28C9015.42,3805.74 9067.59,3802.23 9067.59,3802.23C9067.59,3802.23 9062.57,3795.2 9059.06,3787.18C9055.55,3778.65 9067.59,3744.04 9072.6,3725.98C9077.62,3707.93 9093.17,3700.4 9093.17,3700.4C9080.63,3698.9 9073.6,3691.88 9066.58,3685.36C9059.56,3678.33 9070.59,3642.72 9070.59,3642.72C9070.59,3642.72 9048.52,3651.25 9028.96,3669.3C9009.4,3687.36 8941.68,3745.55 8941.68,3745.55C8941.68,3745.55 9027.46,3649.24 9058.05,3637.7C9069.09,3633.19 9078.62,3630.18 9086.14,3627.67C9103.2,3615.13 9124.26,3607.11 9124.26,3607.11C9124.26,3607.11 9100.69,3603.59 9057.05,3620.65C9013.41,3637.7 8917.61,3744.54 8917.61,3744.54C8924.63,3750.56 8917.61,3766.61 8917.61,3766.61C8929.14,3775.14 8934.16,3827.81 8934.16,3827.81L8936.67,3855.4L8937.17,3860.41L8937.67,3863.92L8938.17,3872.95C8936.67,3873.45 8935.66,3873.96 8934.16,3874.46L8930.15,3875.96L8930.15,3875.46C8926.13,3876.97 8921.62,3877.97 8918.11,3878.47L8929.14,3885.49C8929.14,3885.49 8894.03,3891.51 8889.52,3897.53C8885,3903.55 8879.99,3909.07 8878.98,3935.15C8878.48,3947.69 8876.48,3958.22 8874.97,3966.25L8874.97,3970.26C8874.97,3970.26 8863.43,3999.86 8852.9,4014.91C8842.37,4029.95 8841.36,4044.5 8840.86,4060.55C8839.86,4076.1 8848.89,4077.1 8858.42,4077.1C8867.95,4077.1 8870.46,4052.53 8871.46,4050.02C8872.46,4047.51 8879.49,4028.95 8892.53,4016.91C8905.57,4004.87 8926.64,3975.78 8926.64,3975.78L8944.19,3946.19L8932.65,3978.29C8932.65,3978.29 8944.69,3983.81 8962.75,3983.31C8975.29,3982.8 8990.84,3976.78 9007.39,3975.78C9047.52,3972.27 9056.55,3953.21 9068.09,3955.22C9079.62,3957.22 9076.11,3987.32 9086.65,3995.34C9097.18,4003.37 9103.2,4030.46 9110.22,4043.5C9117.24,4056.54 9110.22,4070.58 9110.22,4070.58C9110.22,4070.58 9105.71,4069.08 9097.18,4073.09C9092.67,4075.1 9093.17,4079.11 9094.67,4082.12C9096.68,4085.63 9100.19,4088.14 9104.2,4088.14L9122.26,4088.14C9130.28,4088.14 9132.79,4083.12 9132.79,4083.12C9132.79,4083.12 9140.82,4068.08 9141.32,4053.53C9142.32,4038.48 9136.81,4035.97 9136.81,4031.46C9136.81,4026.94 9134.3,3982.8 9146.84,3956.72ZM9181.95,3961.24C9173.42,3942.68 9165.9,3919.6 9165.9,3919.6C9165.9,3919.6 9154.36,3955.72 9145.83,3977.79L9145.83,3991.83C9145.83,3991.83 9189.47,4024.94 9194.99,4027.95C9200.01,4030.46 9210.04,4051.02 9210.04,4051.02C9210.04,4051.02 9211.04,4057.04 9200.51,4062.06C9195.49,4064.56 9198,4076.1 9201.51,4076.1C9205.02,4076.1 9234.12,4080.62 9234.62,4065.57C9235.62,4050.52 9212.55,3993.84 9212.55,3993.84C9212.55,3993.84 9190.98,3979.79 9181.95,3961.24ZM8979.3,3988.82C8979.3,3988.82 8953.22,3991.83 8933.66,3986.32C8933.66,3986.32 8951.21,4017.92 8958.24,4025.94C8965.26,4033.97 8969.77,4056.04 8965.26,4056.04L8960.74,4056.04C8960.74,4056.04 8955.73,4057.54 8954.73,4064.56C8953.72,4071.59 8976.29,4076.1 8985.32,4069.08C8994.35,4062.06 8993.35,4038.48 8988.83,4029.45C8984.32,4020.42 8979.3,3988.82 8979.3,3988.82ZM8898.97,3792.83C8896.92,3793.15 8891.59,3792.74 8878.98,3788.68C8869.95,3785.68 8863.93,3785.17 8860.93,3785.17C8860.42,3785.17 8860.42,3785.17 8859.92,3784.67C8870.46,3779.66 8873.97,3773.64 8873.97,3773.64C8873.97,3773.64 8870.96,3776.14 8850.89,3777.15C8841.86,3777.65 8835.34,3778.65 8830.83,3779.66C8812.77,3782.66 8810.76,3801.73 8809.26,3805.74C8803.74,3806.74 8799.73,3807.74 8798.23,3809.25C8794.5,3813.47 8791.93,3820.47 8791.54,3828.61C8791.3,3833.6 8787.76,3831.52 8784.04,3835.42C8781.63,3837.95 8778.7,3841.88 8781.66,3843.55C8783.01,3844.31 8789.73,3843.57 8790.98,3843.84C8792.51,3844.17 8783.13,3850.16 8785.14,3853.17C8785.14,3853.17 8785.62,3857.38 8791.13,3855.38L8792.62,3860.46L8795.24,3855.99C8798.25,3855.49 8797.72,3858.91 8799.73,3860.91C8799.73,3860.91 8801.47,3864.38 8799.08,3865.12C8798.09,3865.43 8794.24,3865.99 8792.62,3867.02C8792.62,3867.02 8788.17,3858.99 8787.1,3860.46C8784.39,3864.23 8784.95,3867.42 8785.49,3870.03C8786.01,3872.58 8787.86,3875.35 8790.33,3876.16C8793.43,3877.18 8801.22,3876.92 8804.09,3876.16C8811.43,3874.21 8815.95,3870.82 8817.31,3868.62C8821.32,3862.1 8830.83,3844.86 8830.83,3840.35C8830.33,3834.83 8834.34,3817.28 8834.34,3817.28C8834.34,3817.28 8832.84,3828.31 8834.34,3835.33C8835.84,3842.36 8831.83,3850.88 8827.32,3857.4C8822.8,3863.92 8813.27,3882.99 8812.77,3883.49C8812.27,3886.5 8811.77,3889.51 8812.27,3892.01C8812.27,3892.01 8813.27,3903.55 8821.3,3910.07C8829.33,3916.09 8830.33,3919.6 8830.33,3919.6C8830.33,3919.6 8829.83,3912.08 8828.82,3906.56C8829.83,3907.06 8830.83,3908.07 8832.33,3908.57C8836.35,3911.58 8838.85,3919.6 8841.86,3929.63C8841.86,3929.63 8845.88,3950.7 8848.39,3958.22C8850.89,3965.75 8858.92,3972.77 8858.92,3972.77C8858.92,3972.77 8857.92,3966.75 8857.41,3960.73C8861.43,3965.25 8866.44,3969.26 8872.96,3972.27C8873.47,3970.76 8873.97,3969.26 8873.97,3967.25L8873.97,3964.24C8873.97,3960.23 8872.46,3936.66 8873.97,3917.6C8873.97,3915.09 8874.47,3912.58 8874.47,3910.57L8874.47,3910.07C8874.97,3908.07 8874.97,3906.06 8875.47,3904.05L8875.47,3903.55C8875.47,3902.55 8875.97,3902.05 8875.97,3901.54L8875.97,3901.04C8875.97,3900.04 8876.48,3899.54 8876.48,3899.04L8876.48,3898.53C8876.48,3898.03 8876.98,3897.53 8876.98,3897.03L8876.98,3896.53C8877.48,3896.03 8877.48,3895.53 8877.98,3895.02C8886.01,3884.99 8896.54,3891.01 8911.09,3882.99C8911.09,3882.99 8898.04,3875.96 8894.53,3872.95C8891.02,3870.45 8911.09,3874.96 8928.14,3869.44L8928.14,3865.93L8918.61,3861.42L8927.64,3857.91L8926.64,3834.33C8923.12,3832.32 8920.11,3830.32 8917.61,3828.81C8912.09,3823.8 8907.57,3818.78 8905.57,3815.77C8902.56,3810.25 8894.53,3803.23 8884.5,3796.71C8890.56,3795.78 8896.19,3793.54 8898.97,3792.83C8899.2,3792.8 8899.39,3792.75 8899.55,3792.7C8899.37,3792.73 8899.18,3792.78 8898.97,3792.83ZM9202.01,3813.76C9182.95,3820.79 9180.95,3844.36 9180.95,3844.36C9190.48,3854.39 9195.99,3877.47 9195.99,3877.47C9217.06,3867.94 9222.08,3830.82 9222.08,3830.82C9215.56,3829.31 9202.01,3813.76 9202.01,3813.76ZM8797.72,3826.81C8797.72,3826.81 8801.04,3815.17 8812.58,3819.38C8812.58,3819.38 8819.4,3824.2 8808.69,3826.28C8805.49,3826.9 8801,3827.13 8797.72,3826.81ZM8927.14,3825.3C8927.14,3825.3 8927.64,3798.22 8913.09,3771.63C8913.09,3771.63 8905.07,3766.11 8903.06,3766.61C8901.05,3767.12 8898.04,3769.62 8897.54,3773.14C8897.54,3773.14 8907.07,3792.7 8909.58,3811.76C8910.08,3812.26 8919.61,3824.8 8927.14,3825.3ZM9202.01,3776.14C9197.5,3792.7 9202.51,3805.24 9202.51,3805.24C9221.07,3827.31 9225.59,3824.3 9225.59,3824.3C9246.15,3811.76 9231.11,3772.13 9231.11,3772.13C9222.58,3779.15 9202.01,3776.14 9202.01,3776.14ZM8839.86,3809.25C8839.86,3804.74 8839.36,3800.22 8838.35,3799.22C8837.35,3798.72 8836.35,3798.72 8835.34,3798.72C8833.34,3799.22 8831.83,3800.22 8830.83,3801.73L8827.82,3805.74L8822.8,3804.23C8822.8,3804.23 8830.83,3786.68 8839.36,3788.18C8847.88,3789.19 8845.38,3810.25 8845.38,3810.25L8839.86,3809.25ZM8900.17,3792.69C8900.14,3792.69 8900.1,3792.7 8900.06,3792.7C8900.1,3792.7 8900.14,3792.69 8900.17,3792.69ZM8900.2,3792.68L8900.18,3792.68L8900.2,3792.68ZM8900.32,3792.63C8900.28,3792.65 8900.25,3792.67 8900.21,3792.68L8900.2,3792.68L8900.21,3792.68C8900.25,3792.67 8900.28,3792.65 8900.32,3792.63ZM8900.33,3792.62C8900.33,3792.62 8900.33,3792.63 8900.32,3792.63L8900.33,3792.62ZM8900.35,3792.61L8900.34,3792.62L8900.35,3792.61ZM8900.36,3792.61L8900.35,3792.61L8900.36,3792.61ZM8900.37,3792.6C8900.37,3792.6 8900.36,3792.6 8900.36,3792.61C8900.36,3792.6 8900.37,3792.6 8900.37,3792.6ZM8900.38,3792.59L8900.37,3792.6C8900.37,3792.6 8900.37,3792.59 8900.38,3792.59ZM8900.38,3792.59L8900.38,3792.59ZM8900.39,3792.58C8900.39,3792.59 8900.38,3792.59 8900.38,3792.59L8900.39,3792.58ZM8900.4,3792.57L8900.39,3792.58L8900.4,3792.57ZM8900.4,3792.57L8900.4,3792.57ZM8900.41,3792.56L8900.41,3792.57L8900.41,3792.56ZM8900.42,3792.55L8900.41,3792.56L8900.42,3792.55ZM8900.43,3792.54L8900.42,3792.55L8900.43,3792.54ZM8900.43,3792.53L8900.43,3792.54L8900.43,3792.53ZM8900.53,3792.35C8900.51,3792.39 8900.49,3792.45 8900.46,3792.5C8900.47,3792.48 8900.48,3792.47 8900.49,3792.45C8900.51,3792.41 8900.52,3792.38 8900.53,3792.34L8900.53,3792.35ZM8900.53,3792.33L8900.53,3792.34L8900.53,3792.33ZM8900.54,3792.31L8900.53,3792.32L8900.54,3792.31ZM8900.54,3792.3L8900.54,3792.3ZM8900.54,3792.28L8900.54,3792.29L8900.54,3792.28ZM8900.54,3792.27L8900.54,3792.28L8900.54,3792.27ZM8900.55,3792.26L8900.55,3792.26ZM8900.55,3792.22L8900.55,3792.23L8900.55,3792.22ZM8900.55,3792.2L8900.55,3792.21L8900.55,3792.2ZM9113.23,3737.02C9111.22,3772.13 9138.81,3762.6 9138.81,3762.6C9141.82,3772.13 9133.8,3784.17 9133.8,3784.17C9165.9,3763.1 9138.31,3734.51 9138.31,3734.51C9124.77,3728.99 9113.23,3737.02 9113.23,3737.02ZM9199.51,3768.12C9215.56,3777.65 9229.6,3766.11 9229.6,3766.11C9229.1,3746.55 9207.53,3725.98 9207.53,3725.98C9200.51,3739.53 9182.45,3745.05 9182.45,3745.05C9189.98,3763.6 9199.51,3768.12 9199.51,3768.12ZM8910.08,3764.11C8910.08,3764.11 8917.61,3755.58 8911.09,3745.55C8911.09,3745.55 8886.51,3745.55 8893.03,3769.12C8893.03,3769.12 8901.05,3755.58 8910.08,3764.11ZM8886.01,3753.07C8888.01,3749.06 8887.01,3739.03 8887.01,3739.03C8866.94,3728.99 8863.43,3758.59 8863.43,3758.59C8875.97,3745.05 8886.01,3753.07 8886.01,3753.07ZM8891.52,3747.55L8898.04,3743.54C8905.07,3738.02 8917.1,3738.02 8917.1,3738.02L8961.25,3691.88C8960.74,3675.82 8963.25,3663.79 8968.27,3655.26C8976.8,3641.72 8994.35,3633.19 8994.35,3633.19C8989.84,3633.19 8942.18,3646.23 8931.65,3661.28C8921.12,3676.83 8891.02,3738.52 8891.02,3738.52C8891.02,3738.52 8892.53,3743.54 8891.52,3747.55ZM9138.81,3726.49C9138.81,3726.49 9164.39,3748.06 9178.44,3741.03C9178.44,3741.03 9199.51,3731.5 9201.51,3723.98C9203.52,3716.45 9174.93,3695.89 9138.31,3707.93C9138.31,3707.93 9144.83,3715.95 9138.81,3726.49ZM9113.23,3730.5C9113.23,3730.5 9126.77,3724.98 9131.79,3727.99C9131.79,3727.99 9137.31,3716.45 9131.29,3709.43C9131.29,3709.93 9114.23,3709.93 9113.23,3730.5ZM8900.44,3792.53C8900.44,3792.52 8900.45,3792.52 8900.45,3792.51L8900.44,3792.53Z" style="fill:white;"/>
    </g>
</svg>
