<?xml version="1.0" encoding="UTF-8" standalone="no"?>
<!DOCTYPE svg PUBLIC "-//W3C//DTD SVG 1.1//EN" "http://www.w3.org/Graphics/SVG/1.1/DTD/svg11.dtd">
<svg width="100%" height="100%" viewBox="0 0 3241 1722" version="1.1" xmlns="http://www.w3.org/2000/svg" xmlns:xlink="http://www.w3.org/1999/xlink" xml:space="preserve" xmlns:serif="http://www.serif.com/" style="fill-rule:evenodd;clip-rule:evenodd;stroke-linejoin:round;stroke-miterlimit:2;">
    <g id="Mekniy_Meehkkxu" transform="matrix(1,0,0,1,-230.629,-9065.52)">
        <g>
            <rect x="230.629" y="9065.52" width="3240.98" height="1721.9" style="fill:none;"/>
            <g>
                <clipPath id="_clip1">
                    <rect x="230.629" y="9065.52" width="3240.98" height="1721.9"/>
                </clipPath>
                <g clip-path="url(#_clip1)">
                    <g transform="matrix(1.14299,0,0,1.1146,-7388.79,5330.48)">
                        <path d="M9473.46,3612.99C9473.46,3484.59 9369.22,3380.36 9240.83,3380.36L8775.57,3380.36C8647.18,3380.36 8542.94,3484.59 8542.94,3612.99L8542.94,4078.25C8542.94,4206.64 8647.18,4310.88 8775.57,4310.88L9240.83,4310.88C9369.22,4310.88 9473.46,4206.64 9473.46,4078.25L9473.46,3612.99Z"/>
                    </g>
                    <g transform="matrix(1.21391,0,0,1.18377,-8027.73,5064.49)">
                        <path d="M9473.46,3612.99C9473.46,3484.59 9369.22,3380.36 9240.83,3380.36L8775.57,3380.36C8647.18,3380.36 8542.94,3484.59 8542.94,3612.99L8542.94,4078.25C8542.94,4206.64 8647.18,4310.88 8775.57,4310.88L9240.83,4310.88C9369.22,4310.88 9473.46,4206.64 9473.46,4078.25L9473.46,3612.99ZM9186.53,4196.87C9213.05,4211.27 9230.75,4231.75 9266.07,4231.89C9305.79,4232.05 9319.1,4211.56 9345.62,4196.87C9292.59,4215.12 9239.56,4215.06 9186.53,4196.87ZM8677.21,4196.87C8703.73,4211.27 8721.43,4231.75 8756.76,4231.89C8796.47,4232.05 8809.78,4211.56 8836.3,4196.87C8783.27,4215.12 8730.24,4215.06 8677.21,4196.87ZM8845.73,4196.87C8872.24,4211.27 8889.95,4231.75 8925.27,4231.89C8964.99,4232.05 8978.3,4211.56 9004.81,4196.87C8951.78,4215.12 8898.76,4215.06 8845.73,4196.87ZM9016.13,4196.87C9042.64,4211.27 9060.35,4231.75 9095.67,4231.89C9135.39,4232.05 9148.7,4211.56 9175.21,4196.87C9122.19,4215.12 9069.16,4215.06 9016.13,4196.87ZM9099.44,4191.21C9125.96,4176.81 9143.67,4156.33 9178.99,4156.19C9218.7,4156.04 9232.01,4176.53 9258.53,4191.21C9205.5,4172.96 9152.47,4173.02 9099.44,4191.21ZM8929.04,4191.21C8955.56,4176.81 8973.26,4156.33 9008.59,4156.19C9048.3,4156.04 9061.61,4176.53 9088.13,4191.21C9035.1,4172.96 8982.07,4173.02 8929.04,4191.21ZM8758.64,4191.21C8785.16,4176.81 8802.86,4156.33 8838.18,4156.19C8877.9,4156.04 8891.21,4176.53 8917.73,4191.21C8864.7,4172.96 8811.67,4173.02 8758.64,4191.21ZM9356.07,4022.59C9370.47,4049.11 9390.95,4066.81 9391.09,4102.13C9391.25,4141.85 9370.76,4155.16 9356.07,4181.67C9374.32,4128.65 9374.26,4075.62 9356.07,4022.59ZM8667.42,4022.59C8653.01,4049.11 8632.53,4066.81 8632.4,4102.13C8632.24,4141.85 8652.73,4155.16 8667.42,4181.67C8649.17,4128.65 8649.23,4075.62 8667.42,4022.59ZM9350.42,3935.5C9336.01,3962.02 9315.53,3979.72 9315.4,4015.05C9315.24,4054.76 9335.73,4068.07 9350.42,4094.59C9332.17,4041.56 9332.23,3988.53 9350.42,3935.5ZM8673.07,3935.5C8687.47,3962.02 8707.95,3979.72 8708.09,4015.05C8708.25,4054.76 8687.76,4068.07 8673.07,4094.59C8691.32,4041.56 8691.26,3988.53 8673.07,3935.5ZM9146.84,3956.72C9158.88,3930.64 9158.88,3909.07 9158.88,3909.07C9180.95,3909.57 9189.98,3888 9189.98,3888C9189.98,3872.95 9175.43,3851.38 9175.43,3851.38C9157.37,3852.39 9146.84,3867.44 9146.84,3867.44C9114.74,3845.87 9060.56,3853.89 9055.05,3854.9L9025.45,3857.4C9019.93,3857.91 9014.92,3857.91 9009.9,3858.41C9006.89,3848.38 9002.38,3829.31 9007.89,3819.28C9015.42,3805.74 9067.59,3802.23 9067.59,3802.23C9067.59,3802.23 9062.57,3795.2 9059.06,3787.18C9055.55,3778.65 9067.59,3744.04 9072.6,3725.98C9077.62,3707.93 9093.17,3700.4 9093.17,3700.4C9080.63,3698.9 9073.6,3691.88 9066.58,3685.36C9059.56,3678.33 9070.59,3642.72 9070.59,3642.72C9070.59,3642.72 9048.52,3651.25 9028.96,3669.3C9009.4,3687.36 8941.68,3745.55 8941.68,3745.55C8941.68,3745.55 9027.46,3649.24 9058.05,3637.7C9069.09,3633.19 9078.62,3630.18 9086.14,3627.67C9103.2,3615.13 9124.26,3607.11 9124.26,3607.11C9124.26,3607.11 9100.69,3603.59 9057.05,3620.65C9013.41,3637.7 8917.61,3744.54 8917.61,3744.54C8924.63,3750.56 8917.61,3766.61 8917.61,3766.61C8929.14,3775.14 8934.16,3827.81 8934.16,3827.81L8936.67,3855.4L8937.17,3860.41L8937.67,3863.92L8938.17,3872.95C8936.67,3873.45 8935.66,3873.96 8934.16,3874.46L8930.15,3875.96L8930.15,3875.46C8926.13,3876.97 8921.62,3877.97 8918.11,3878.47L8929.14,3885.49C8929.14,3885.49 8894.03,3891.51 8889.52,3897.53C8885,3903.55 8879.99,3909.07 8878.98,3935.15C8878.48,3947.69 8876.48,3958.22 8874.97,3966.25L8874.97,3970.26C8874.97,3970.26 8863.43,3999.86 8852.9,4014.91C8842.37,4029.95 8841.36,4044.5 8840.86,4060.55C8839.86,4076.1 8848.89,4077.1 8858.42,4077.1C8867.95,4077.1 8870.46,4052.53 8871.46,4050.02C8872.46,4047.51 8879.49,4028.95 8892.53,4016.91C8905.57,4004.87 8926.64,3975.78 8926.64,3975.78L8944.19,3946.19L8932.65,3978.29C8932.65,3978.29 8944.69,3983.81 8962.75,3983.31C8975.29,3982.8 8990.84,3976.78 9007.39,3975.78C9047.52,3972.27 9056.55,3953.21 9068.09,3955.22C9079.62,3957.22 9076.11,3987.32 9086.65,3995.34C9097.18,4003.37 9103.2,4030.46 9110.22,4043.5C9117.24,4056.54 9110.22,4070.58 9110.22,4070.58C9110.22,4070.58 9105.71,4069.08 9097.18,4073.09C9092.67,4075.1 9093.17,4079.11 9094.67,4082.12C9096.68,4085.63 9100.19,4088.14 9104.2,4088.14L9122.26,4088.14C9130.28,4088.14 9132.79,4083.12 9132.79,4083.12C9132.79,4083.12 9140.82,4068.08 9141.32,4053.53C9142.32,4038.48 9136.81,4035.97 9136.81,4031.46C9136.81,4026.94 9134.3,3982.8 9146.84,3956.72ZM9181.95,3961.24C9173.42,3942.68 9165.9,3919.6 9165.9,3919.6C9165.9,3919.6 9154.36,3955.72 9145.83,3977.79L9145.83,3991.83C9145.83,3991.83 9189.47,4024.94 9194.99,4027.95C9200.01,4030.46 9210.04,4051.02 9210.04,4051.02C9210.04,4051.02 9211.04,4057.04 9200.51,4062.06C9195.49,4064.56 9198,4076.1 9201.51,4076.1C9205.02,4076.1 9234.12,4080.62 9234.62,4065.57C9235.62,4050.52 9212.55,3993.84 9212.55,3993.84C9212.55,3993.84 9190.98,3979.79 9181.95,3961.24ZM8979.3,3988.82C8979.3,3988.82 8953.22,3991.83 8933.66,3986.32C8933.66,3986.32 8951.21,4017.92 8958.24,4025.94C8965.26,4033.97 8969.77,4056.04 8965.26,4056.04L8960.74,4056.04C8960.74,4056.04 8955.73,4057.54 8954.73,4064.56C8953.72,4071.59 8976.29,4076.1 8985.32,4069.08C8994.35,4062.06 8993.35,4038.48 8988.83,4029.45C8984.32,4020.42 8979.3,3988.82 8979.3,3988.82ZM9356.07,3852.19C9370.47,3878.7 9390.95,3896.41 9391.09,3931.73C9391.25,3971.45 9370.76,3984.76 9356.07,4011.27C9374.32,3958.24 9374.26,3905.22 9356.07,3852.19ZM8667.42,3852.19C8653.01,3878.7 8632.53,3896.41 8632.4,3931.73C8632.24,3971.45 8652.73,3984.76 8667.42,4011.27C8649.17,3958.24 8649.23,3905.22 8667.42,3852.19ZM8898.97,3792.83C8896.92,3793.15 8891.59,3792.74 8878.98,3788.68C8869.95,3785.68 8863.93,3785.17 8860.93,3785.17C8860.42,3785.17 8860.42,3785.17 8859.92,3784.67C8870.46,3779.66 8873.97,3773.64 8873.97,3773.64C8873.97,3773.64 8870.96,3776.14 8850.89,3777.15C8841.86,3777.65 8835.34,3778.65 8830.83,3779.66C8812.77,3782.66 8810.76,3801.73 8809.26,3805.74C8803.74,3806.74 8799.73,3807.74 8798.23,3809.25C8794.5,3813.47 8791.93,3820.47 8791.54,3828.61C8791.3,3833.6 8787.76,3831.52 8784.04,3835.42C8781.63,3837.95 8778.7,3841.88 8781.66,3843.55C8783.01,3844.31 8789.73,3843.57 8790.98,3843.84C8792.51,3844.17 8783.13,3850.16 8785.14,3853.17C8785.14,3853.17 8785.62,3857.38 8791.13,3855.38L8792.62,3860.46L8795.24,3855.99C8798.25,3855.49 8797.72,3858.91 8799.73,3860.91C8799.73,3860.91 8801.47,3864.38 8799.08,3865.12C8798.09,3865.43 8794.24,3865.99 8792.62,3867.02C8792.62,3867.02 8788.17,3858.99 8787.1,3860.46C8784.39,3864.23 8784.95,3867.42 8785.49,3870.03C8786.01,3872.58 8787.86,3875.35 8790.33,3876.16C8793.43,3877.18 8801.22,3876.92 8804.09,3876.16C8811.43,3874.21 8815.95,3870.82 8817.31,3868.62C8821.32,3862.1 8830.83,3844.86 8830.83,3840.35C8830.33,3834.83 8834.34,3817.28 8834.34,3817.28C8834.34,3817.28 8832.84,3828.31 8834.34,3835.33C8835.84,3842.36 8831.83,3850.88 8827.32,3857.4C8822.8,3863.92 8813.27,3882.99 8812.77,3883.49C8812.27,3886.5 8811.77,3889.51 8812.27,3892.01C8812.27,3892.01 8813.27,3903.55 8821.3,3910.07C8829.33,3916.09 8830.33,3919.6 8830.33,3919.6C8830.33,3919.6 8829.83,3912.08 8828.82,3906.56C8829.83,3907.06 8830.83,3908.07 8832.33,3908.57C8836.35,3911.58 8838.85,3919.6 8841.86,3929.63C8841.86,3929.63 8845.88,3950.7 8848.39,3958.22C8850.89,3965.75 8858.92,3972.77 8858.92,3972.77C8858.92,3972.77 8857.92,3966.75 8857.41,3960.73C8861.43,3965.25 8866.44,3969.26 8872.96,3972.27C8873.47,3970.76 8873.97,3969.26 8873.97,3967.25L8873.97,3964.24C8873.97,3960.23 8872.46,3936.66 8873.97,3917.6C8873.97,3915.09 8874.47,3912.58 8874.47,3910.57L8874.47,3910.07C8874.97,3908.07 8874.97,3906.06 8875.47,3904.05L8875.47,3903.55C8875.47,3902.55 8875.97,3902.05 8875.97,3901.54L8875.97,3901.04C8875.97,3900.04 8876.48,3899.54 8876.48,3899.04L8876.48,3898.53C8876.48,3898.03 8876.98,3897.53 8876.98,3897.03L8876.98,3896.53C8877.48,3896.03 8877.48,3895.53 8877.98,3895.02C8886.01,3884.99 8896.54,3891.01 8911.09,3882.99C8911.09,3882.99 8898.04,3875.96 8894.53,3872.95C8891.02,3870.45 8911.09,3874.96 8928.14,3869.44L8928.14,3865.93L8918.61,3861.42L8927.64,3857.91L8926.64,3834.33C8923.12,3832.32 8920.11,3830.32 8917.61,3828.81C8912.09,3823.8 8907.57,3818.78 8905.57,3815.77C8902.56,3810.25 8894.53,3803.23 8884.5,3796.71C8890.56,3795.78 8896.19,3793.54 8898.97,3792.83C8899.2,3792.8 8899.39,3792.75 8899.55,3792.7C8899.37,3792.73 8899.18,3792.78 8898.97,3792.83ZM9350.42,3765.1C9336.01,3791.62 9315.53,3809.32 9315.4,3844.64C9315.24,3884.36 9335.73,3897.67 9350.42,3924.18C9332.17,3871.16 9332.23,3818.13 9350.42,3765.1ZM8673.07,3765.1C8687.47,3791.62 8707.95,3809.32 8708.09,3844.64C8708.25,3884.36 8687.76,3897.67 8673.07,3924.18C8691.32,3871.16 8691.26,3818.13 8673.07,3765.1ZM9202.01,3813.76C9182.95,3820.79 9180.95,3844.36 9180.95,3844.36C9190.48,3854.39 9195.99,3877.47 9195.99,3877.47C9217.06,3867.94 9222.08,3830.82 9222.08,3830.82C9215.56,3829.31 9202.01,3813.76 9202.01,3813.76ZM9356.07,3681.79C9370.47,3708.3 9390.95,3726.01 9391.09,3761.33C9391.25,3801.04 9370.76,3814.36 9356.07,3840.87C9374.32,3787.84 9374.26,3734.82 9356.07,3681.79ZM8667.42,3681.79C8653.01,3708.3 8632.53,3726.01 8632.4,3761.33C8632.24,3801.04 8652.73,3814.36 8667.42,3840.87C8649.17,3787.84 8649.23,3734.82 8667.42,3681.79ZM8797.72,3826.81C8797.72,3826.81 8801.04,3815.17 8812.58,3819.38C8812.58,3819.38 8819.4,3824.2 8808.69,3826.28C8805.49,3826.9 8801,3827.13 8797.72,3826.81ZM8927.14,3825.3C8927.14,3825.3 8927.64,3798.22 8913.09,3771.63C8913.09,3771.63 8905.07,3766.11 8903.06,3766.61C8901.05,3767.12 8898.04,3769.62 8897.54,3773.14C8897.54,3773.14 8907.07,3792.7 8909.58,3811.76C8910.08,3812.26 8919.61,3824.8 8927.14,3825.3ZM9202.01,3776.14C9197.5,3792.7 9202.51,3805.24 9202.51,3805.24C9221.07,3827.31 9225.59,3824.3 9225.59,3824.3C9246.15,3811.76 9231.11,3772.13 9231.11,3772.13C9222.58,3779.15 9202.01,3776.14 9202.01,3776.14ZM8839.86,3809.25C8839.86,3804.74 8839.36,3800.22 8838.35,3799.22C8837.35,3798.72 8836.35,3798.72 8835.34,3798.72C8833.34,3799.22 8831.83,3800.22 8830.83,3801.73L8827.82,3805.74L8822.8,3804.23C8822.8,3804.23 8830.83,3786.68 8839.36,3788.18C8847.88,3789.19 8845.38,3810.25 8845.38,3810.25L8839.86,3809.25ZM8900.17,3792.69C8900.14,3792.69 8900.1,3792.7 8900.06,3792.7C8900.1,3792.7 8900.14,3792.69 8900.17,3792.69ZM8900.2,3792.68L8900.18,3792.68L8900.2,3792.68ZM8900.32,3792.63C8900.28,3792.65 8900.25,3792.67 8900.21,3792.68L8900.2,3792.68L8900.21,3792.68C8900.25,3792.67 8900.28,3792.65 8900.32,3792.63ZM8900.33,3792.62C8900.33,3792.62 8900.33,3792.63 8900.32,3792.63L8900.33,3792.62ZM8900.35,3792.61L8900.34,3792.62L8900.35,3792.61ZM8900.36,3792.61L8900.35,3792.61L8900.36,3792.61ZM8900.37,3792.6C8900.37,3792.6 8900.36,3792.6 8900.36,3792.61C8900.36,3792.6 8900.37,3792.6 8900.37,3792.6ZM8900.38,3792.59L8900.37,3792.6C8900.37,3792.6 8900.37,3792.59 8900.38,3792.59ZM8900.38,3792.59L8900.38,3792.59ZM8900.39,3792.58C8900.39,3792.59 8900.38,3792.59 8900.38,3792.59L8900.39,3792.58ZM8900.4,3792.57L8900.39,3792.58L8900.4,3792.57ZM8900.4,3792.57L8900.4,3792.57ZM8900.41,3792.56L8900.41,3792.57L8900.41,3792.56ZM8900.42,3792.55L8900.41,3792.56L8900.42,3792.55ZM8900.43,3792.54L8900.42,3792.55L8900.43,3792.54ZM8900.43,3792.53L8900.43,3792.54L8900.43,3792.53ZM8900.53,3792.35C8900.51,3792.39 8900.49,3792.45 8900.46,3792.5C8900.47,3792.48 8900.48,3792.47 8900.49,3792.45C8900.51,3792.41 8900.52,3792.38 8900.53,3792.34L8900.53,3792.35ZM8900.53,3792.33L8900.53,3792.34L8900.53,3792.33ZM8900.54,3792.31L8900.53,3792.32L8900.54,3792.31ZM8900.54,3792.3L8900.54,3792.3ZM8900.54,3792.28L8900.54,3792.29L8900.54,3792.28ZM8900.54,3792.27L8900.54,3792.28L8900.54,3792.27ZM8900.55,3792.26L8900.55,3792.26ZM8900.55,3792.22L8900.55,3792.23L8900.55,3792.22ZM8900.55,3792.2L8900.55,3792.21L8900.55,3792.2ZM9113.23,3737.02C9111.22,3772.13 9138.81,3762.6 9138.81,3762.6C9141.82,3772.13 9133.8,3784.17 9133.8,3784.17C9165.9,3763.1 9138.31,3734.51 9138.31,3734.51C9124.77,3728.99 9113.23,3737.02 9113.23,3737.02ZM9199.51,3768.12C9215.56,3777.65 9229.6,3766.11 9229.6,3766.11C9229.1,3746.55 9207.53,3725.98 9207.53,3725.98C9200.51,3739.53 9182.45,3745.05 9182.45,3745.05C9189.98,3763.6 9199.51,3768.12 9199.51,3768.12ZM8910.08,3764.11C8910.08,3764.11 8917.61,3755.58 8911.09,3745.55C8911.09,3745.55 8886.51,3745.55 8893.03,3769.12C8893.03,3769.12 8901.05,3755.58 8910.08,3764.11ZM8886.01,3753.07C8888.01,3749.06 8887.01,3739.03 8887.01,3739.03C8866.94,3728.99 8863.43,3758.59 8863.43,3758.59C8875.97,3745.05 8886.01,3753.07 8886.01,3753.07ZM9350.42,3594.7C9336.01,3621.21 9315.53,3638.92 9315.4,3674.24C9315.24,3713.96 9335.73,3727.27 9350.42,3753.78C9332.17,3700.76 9332.23,3647.73 9350.42,3594.7ZM8673.07,3594.7C8687.47,3621.21 8707.95,3638.92 8708.09,3674.24C8708.25,3713.96 8687.76,3727.27 8673.07,3753.78C8691.32,3700.76 8691.26,3647.73 8673.07,3594.7ZM8891.52,3747.55L8898.04,3743.54C8905.07,3738.02 8917.1,3738.02 8917.1,3738.02L8961.25,3691.88C8960.74,3675.82 8963.25,3663.79 8968.27,3655.26C8976.8,3641.72 8994.35,3633.19 8994.35,3633.19C8989.84,3633.19 8942.18,3646.23 8931.65,3661.28C8921.12,3676.83 8891.02,3738.52 8891.02,3738.52C8891.02,3738.52 8892.53,3743.54 8891.52,3747.55ZM9138.81,3726.49C9138.81,3726.49 9164.39,3748.06 9178.44,3741.03C9178.44,3741.03 9199.51,3731.5 9201.51,3723.98C9203.52,3716.45 9174.93,3695.89 9138.31,3707.93C9138.31,3707.93 9144.83,3715.95 9138.81,3726.49ZM9113.23,3730.5C9113.23,3730.5 9126.77,3724.98 9131.79,3727.99C9131.79,3727.99 9137.31,3716.45 9131.29,3709.43C9131.29,3709.93 9114.23,3709.93 9113.23,3730.5ZM9356.07,3513.27C9370.47,3539.79 9390.95,3557.49 9391.09,3592.81C9391.25,3632.53 9370.76,3645.84 9356.07,3672.36C9374.32,3619.33 9374.26,3566.3 9356.07,3513.27ZM8667.42,3513.27C8653.01,3539.79 8632.53,3557.49 8632.4,3592.81C8632.24,3632.53 8652.73,3645.84 8667.42,3672.36C8649.17,3619.33 8649.23,3566.3 8667.42,3513.27ZM8931.87,3500.8C8958.39,3515.2 8976.09,3535.68 9011.42,3535.82C9051.13,3535.97 9064.44,3515.48 9090.96,3500.8C9037.93,3519.05 8984.9,3518.99 8931.87,3500.8ZM9102.27,3500.8C9128.79,3515.2 9146.49,3535.68 9181.82,3535.82C9221.53,3535.97 9234.84,3515.48 9261.36,3500.8C9208.33,3519.05 9155.3,3518.99 9102.27,3500.8ZM8761.47,3500.8C8787.99,3515.2 8805.69,3535.68 8841.01,3535.82C8880.73,3535.97 8894.04,3515.48 8920.56,3500.8C8867.53,3519.05 8814.5,3518.99 8761.47,3500.8ZM8848.56,3495.14C8875.07,3480.74 8892.78,3460.26 8928.1,3460.12C8967.81,3459.96 8981.13,3480.45 9007.64,3495.14C8954.61,3476.89 8901.59,3476.95 8848.56,3495.14ZM8680.04,3495.14C8706.56,3480.74 8724.26,3460.26 8759.58,3460.12C8799.3,3459.96 8812.61,3480.45 8839.13,3495.14C8786.1,3476.89 8733.07,3476.95 8680.04,3495.14ZM9189.36,3495.14C9215.88,3480.74 9233.58,3460.26 9268.9,3460.12C9308.62,3459.96 9321.93,3480.45 9348.45,3495.14C9295.42,3476.89 9242.39,3476.95 9189.36,3495.14ZM9018.96,3495.14C9045.47,3480.74 9063.18,3460.26 9098.5,3460.12C9138.22,3459.96 9151.53,3480.45 9178.04,3495.14C9125.02,3476.89 9071.99,3476.95 9018.96,3495.14ZM8900.44,3792.53C8900.44,3792.52 8900.45,3792.52 8900.45,3792.51L8900.44,3792.53Z" style="fill:white;"/>
                    </g>
                    <g transform="matrix(4.25185,0,0,4.25185,13425.6,4626.59)">
                        <g transform="matrix(226.387,0,0,313.964,-2930.47,1508.4)">
                            <rect x="0.123" y="-0.704" width="0.327" height="0.07" style="fill-rule:nonzero;"/>
                        </g>
                        <g transform="matrix(226.387,0,0,226.387,-3116.46,1447)">
                            <path d="M0.805,-0.705L0.805,0L0.673,0L0.673,-0.476L0.669,-0.476L0.478,-0.007L0.385,-0.007L0.194,-0.476L0.19,-0.476L0.19,0L0.059,0L0.059,-0.705L0.229,-0.705L0.43,-0.205L0.434,-0.205L0.634,-0.705L0.805,-0.705Z" style="fill-rule:nonzero;"/>
                        </g>
                        <g transform="matrix(226.387,0,0,226.387,-2930.08,1447)">
                            <path d="M0.288,-0.44C0.256,-0.44 0.228,-0.43 0.207,-0.408C0.185,-0.387 0.173,-0.359 0.17,-0.324L0.402,-0.324C0.401,-0.359 0.39,-0.388 0.369,-0.409C0.348,-0.43 0.321,-0.44 0.288,-0.44ZM0.404,-0.164L0.536,-0.164C0.528,-0.112 0.502,-0.07 0.457,-0.038C0.412,-0.007 0.357,0.009 0.292,0.009C0.21,0.009 0.146,-0.015 0.099,-0.064C0.052,-0.114 0.028,-0.181 0.028,-0.267C0.028,-0.352 0.052,-0.42 0.098,-0.471C0.145,-0.522 0.208,-0.547 0.287,-0.547C0.364,-0.547 0.426,-0.523 0.471,-0.475C0.517,-0.426 0.54,-0.361 0.54,-0.28L0.54,-0.236L0.169,-0.236L0.169,-0.227C0.169,-0.188 0.181,-0.157 0.204,-0.133C0.227,-0.109 0.257,-0.097 0.294,-0.097C0.321,-0.097 0.345,-0.103 0.365,-0.115C0.384,-0.127 0.397,-0.143 0.404,-0.164Z" style="fill-rule:nonzero;"/>
                        </g>
                        <g transform="matrix(226.387,0,0,226.387,-2810.47,1447)">
                            <path d="M0.197,-0.32L0.383,-0.538L0.545,-0.538L0.338,-0.307L0.555,0L0.391,0L0.233,-0.221L0.195,-0.179L0.195,0L0.052,0L0.052,-0.738L0.195,-0.738L0.195,-0.32L0.197,-0.32Z" style="fill-rule:nonzero;"/>
                        </g>
                        <g transform="matrix(226.387,0,0,226.387,-2695.06,1447)">
                            <path d="M0.197,-0.32L0.383,-0.538L0.545,-0.538L0.338,-0.307L0.555,0L0.391,0L0.233,-0.221L0.195,-0.179L0.195,0L0.052,0L0.052,-0.738L0.195,-0.738L0.195,-0.32L0.197,-0.32Z" style="fill-rule:nonzero;"/>
                        </g>
                        <g transform="matrix(226.387,0,0,226.387,-2579.64,1447)">
                            <path d="M0.268,-0.188L0.265,-0.188L0.162,0L0.011,0L0.181,-0.268L0.013,-0.538L0.173,-0.538L0.272,-0.354L0.275,-0.354L0.373,-0.538L0.528,-0.538L0.359,-0.271L0.527,0L0.371,0L0.268,-0.188Z" style="fill-rule:nonzero;"/>
                        </g>
                        <g transform="matrix(226.387,0,0,226.387,-2466.66,1447)">
                            <path d="M0.551,-0.538L0.551,0L0.413,0L0.413,-0.097L0.41,-0.097C0.396,-0.063 0.375,-0.037 0.346,-0.019C0.317,-0.001 0.282,0.008 0.241,0.008C0.182,0.008 0.135,-0.01 0.099,-0.046C0.064,-0.082 0.046,-0.131 0.046,-0.193L0.046,-0.538L0.188,-0.538L0.188,-0.223C0.188,-0.187 0.198,-0.159 0.217,-0.14C0.236,-0.121 0.262,-0.111 0.295,-0.111C0.329,-0.111 0.356,-0.122 0.377,-0.144C0.398,-0.166 0.408,-0.195 0.408,-0.231L0.408,-0.538L0.551,-0.538Z" style="fill-rule:nonzero;"/>
                        </g>
                    </g>
                </g>
            </g>
        </g>
    </g>
</svg>
